<svg xmlns="http://www.w3.org/2000/svg" width="2007" height="837" data-diagram-type="DESCRIPTION" preserveAspectRatio="none" style="width:2007px;height:837px;background:#fff" viewBox="0 0 2007 837"><rect width="158" height="534" x="7" y="297.5" fill="transparent" stroke="#181818" rx="2.5" ry="2.5"/><text x="69.433" y="312.495" font-family="sans-serif" font-size="14" font-weight="bold" textLength="33.134">UGC</text><rect width="291" height="255.5" x="189" y="297.5" fill="transparent" stroke="#181818" rx="2.5" ry="2.5"/><text x="298.068" y="312.495" font-family="sans-serif" font-size="14" font-weight="bold" textLength="72.864">AsyncAPI</text><rect width="261" height="255.5" x="504" y="297.5" fill="transparent" stroke="#181818" rx="2.5" ry="2.5"/><text x="609.395" y="312.495" font-family="sans-serif" font-size="14" font-weight="bold" textLength="50.21">Admin</text><rect width="245" height="236" x="879" y="456.5" fill="transparent" stroke="#181818" rx="2.5" ry="2.5"/><text x="951.232" y="471.495" font-family="sans-serif" font-size="14" font-weight="bold" textLength="100.536">Auth Service</text><rect width="495" height="375" x="1506" y="456.5" fill="transparent" stroke="#181818" rx="2.5" ry="2.5"/><text x="1675.635" y="471.495" font-family="sans-serif" font-size="14" font-weight="bold" textLength="155.73">Notification System</text><rect width="333" height="395" x="1149" y="297.5" fill="transparent" stroke="#181818" rx="2.5" ry="2.5"/><text x="1229.842" y="312.495" font-family="sans-serif" font-size="14" font-weight="bold" textLength="171.315">Billing &amp; Subscription</text><rect width="124.608" height="46.297" x="23.5" y="332.5" fill="#F1F1F1" stroke="#181818" stroke-width=".5" rx="2.5" ry="2.5"/><path fill="#F1F1F1" stroke="#181818" stroke-width=".5" d="M128.108 337.5h15v10h-15z"/><path fill="#F1F1F1" stroke="#181818" stroke-width=".5" d="M126.108 339.5h4v2h-4zM126.108 343.5h4v2h-4z"/><text x="38.5" y="365.495" font-family="sans-serif" font-size="14" textLength="84.608">Views Proxy</text><path fill="#F1F1F1" stroke="#181818" stroke-width=".5" d="M50.5 502c0-10 29.688-10 29.688-10s29.687 0 29.687 10v25.297c0 10-29.688 10-29.688 10s-29.687 0-29.687-10V502"/><path fill="transparent" stroke="#181818" stroke-width=".5" d="M50.5 502c0 10 29.688 10 29.688 10s29.687 0 29.687-10"/><text x="60.5" y="528.995" font-family="sans-serif" font-size="14" textLength="39.375">Kafka</text><rect width="110.472" height="46.297" x="25" y="631" fill="#F1F1F1" stroke="#181818" stroke-width=".5" rx="2.5" ry="2.5"/><path fill="#F1F1F1" stroke="#181818" stroke-width=".5" d="M115.472 636h15v10h-15z"/><path fill="#F1F1F1" stroke="#181818" stroke-width=".5" d="M113.472 638h4v2h-4zM113.472 642h4v2h-4z"/><text x="40" y="663.995" font-family="sans-serif" font-size="14" textLength="70.472">Views ETL</text><path fill="#F1F1F1" stroke="#181818" stroke-width=".5" d="M32 780.5c0-10 47.79-10 47.79-10s47.788 0 47.788 10v25.297c0 10-47.789 10-47.789 10s-47.789 0-47.789-10V780.5"/><path fill="transparent" stroke="#181818" stroke-width=".5" d="M32 780.5c0 10 47.79 10 47.79 10s47.788 0 47.788-10"/><text x="42" y="807.495" font-family="sans-serif" font-size="14" textLength="75.578">Clickhouse</text><rect width="108.53" height="46.297" x="353.5" y="332.5" fill="#F1F1F1" stroke="#181818" stroke-width=".5" rx="2.5" ry="2.5"/><path fill="#F1F1F1" stroke="#181818" stroke-width=".5" d="M442.03 337.5h15v10h-15z"/><path fill="#F1F1F1" stroke="#181818" stroke-width=".5" d="M440.03 339.5h4v2h-4zM440.03 343.5h4v2h-4z"/><text x="368.5" y="365.495" font-family="sans-serif" font-size="14" textLength="68.53">Async Api</text><path fill="#F1F1F1" stroke="#181818" stroke-width=".5" d="M350 502c0-10 57.045-10 57.045-10s57.045 0 57.045 10v25.297c0 10-57.045 10-57.045 10s-57.045 0-57.045-10V502"/><path fill="transparent" stroke="#181818" stroke-width=".5" d="M350 502c0 10 57.045 10 57.045 10s57.045 0 57.045-10"/><text x="360" y="528.995" font-family="sans-serif" font-size="14" textLength="94.09">ElasticSearch</text><path fill="#F1F1F1" stroke="#181818" stroke-width=".5" d="M205 502c0-10 55.093-10 55.093-10s55.094 0 55.094 10v25.297c0 10-55.094 10-55.094 10s-55.093 0-55.093-10V502"/><path fill="transparent" stroke="#181818" stroke-width=".5" d="M205 502c0 10 55.093 10 55.093 10s55.094 0 55.094-10"/><text x="215" y="528.995" font-family="sans-serif" font-size="14" textLength="90.186">Async_cache</text><rect width="127.712" height="46.297" x="621" y="332.5" fill="#F1F1F1" stroke="#181818" stroke-width=".5" rx="2.5" ry="2.5"/><path fill="#F1F1F1" stroke="#181818" stroke-width=".5" d="M728.712 337.5h15v10h-15z"/><path fill="#F1F1F1" stroke="#181818" stroke-width=".5" d="M726.712 339.5h4v2h-4zM726.712 343.5h4v2h-4z"/><text x="636" y="365.495" font-family="sans-serif" font-size="14" textLength="87.712">Admin Panel</text><path fill="#F1F1F1" stroke="#181818" stroke-width=".5" d="M590 502c0-10 44.819-10 44.819-10s44.819 0 44.819 10v25.297c0 10-44.82 10-44.82 10s-44.818 0-44.818-10V502"/><path fill="transparent" stroke="#181818" stroke-width=".5" d="M590 502c0 10 44.819 10 44.819 10s44.819 0 44.819-10"/><text x="600" y="528.995" font-family="sans-serif" font-size="14" textLength="69.638">Admin_pg</text><rect width="65.197" height="46.297" x="520.5" y="332.5" fill="#F1F1F1" stroke="#181818" stroke-width=".5" rx="2.5" ry="2.5"/><path fill="#F1F1F1" stroke="#181818" stroke-width=".5" d="M565.697 337.5h15v10h-15z"/><path fill="#F1F1F1" stroke="#181818" stroke-width=".5" d="M563.697 339.5h4v2h-4zM563.697 343.5h4v2h-4z"/><text x="535.5" y="365.495" font-family="sans-serif" font-size="14" textLength="25.197">ETL</text><rect width="72.813" height="46.297" x="1020.5" y="491.5" fill="#F1F1F1" stroke="#181818" stroke-width=".5" rx="2.5" ry="2.5"/><path fill="#F1F1F1" stroke="#181818" stroke-width=".5" d="M1073.313 496.5h15v10h-15z"/><path fill="#F1F1F1" stroke="#181818" stroke-width=".5" d="M1071.313 498.5h4v2h-4zM1071.313 502.5h4v2h-4z"/><text x="1035.5" y="524.495" font-family="sans-serif" font-size="14" textLength="32.813">Auth</text><path fill="#F1F1F1" stroke="#181818" stroke-width=".5" d="M895 641.5c0-10 38.793-10 38.793-10s38.793 0 38.793 10v25.297c0 10-38.793 10-38.793 10s-38.793 0-38.793-10V641.5"/><path fill="transparent" stroke="#181818" stroke-width=".5" d="M895 641.5c0 10 38.793 10 38.793 10s38.793 0 38.793-10"/><text x="905" y="668.495" font-family="sans-serif" font-size="14" textLength="57.586">Auth_pg</text><path fill="#F1F1F1" stroke="#181818" stroke-width=".5" d="M1008.5 641.5c0-10 49.662-10 49.662-10s49.662 0 49.662 10v25.297c0 10-49.662 10-49.662 10s-49.662 0-49.662-10V641.5"/><path fill="transparent" stroke="#181818" stroke-width=".5" d="M1008.5 641.5c0 10 49.662 10 49.662 10s49.662 0 49.662-10"/><text x="1018.5" y="668.495" font-family="sans-serif" font-size="14" textLength="79.324">Auth-cache</text><rect width="195.873" height="46.297" x="1522" y="491.5" fill="#F1F1F1" stroke="#181818" stroke-width=".5" rx="2.5" ry="2.5"/><path fill="#F1F1F1" stroke="#181818" stroke-width=".5" d="M1697.873 496.5h15v10h-15z"/><path fill="#F1F1F1" stroke="#181818" stroke-width=".5" d="M1695.873 498.5h4v2h-4zM1695.873 502.5h4v2h-4z"/><text x="1537" y="524.495" font-family="sans-serif" font-size="14" textLength="155.873">Notification Generator</text><rect width="146.928" height="46.297" x="1522.5" y="631" fill="#F1F1F1" stroke="#181818" stroke-width=".5" rx="2.5" ry="2.5"/><path fill="#F1F1F1" stroke="#181818" stroke-width=".5" d="M1649.428 636h15v10h-15z"/><path fill="#F1F1F1" stroke="#181818" stroke-width=".5" d="M1647.428 638h4v2h-4zM1647.428 642h4v2h-4z"/><text x="1537.5" y="663.995" font-family="sans-serif" font-size="14" textLength="106.928">Notification API</text><rect width="132.921" height="46.297" x="1851.5" y="631" fill="#F1F1F1" stroke="#181818" stroke-width=".5" rx="2.5" ry="2.5"/><path fill="#F1F1F1" stroke="#181818" stroke-width=".5" d="M1964.421 636h15v10h-15z"/><path fill="#F1F1F1" stroke="#181818" stroke-width=".5" d="M1962.421 638h4v2h-4zM1962.421 642h4v2h-4z"/><text x="1866.5" y="663.995" font-family="sans-serif" font-size="14" textLength="92.921">Email Sender</text><path fill="#F1F1F1" stroke="#181818" stroke-width=".5" d="M1534 780.5c0-10 61.752-10 61.752-10s61.75 0 61.75 10v25.297c0 10-61.75 10-61.75 10s-61.752 0-61.752-10V780.5"/><path fill="transparent" stroke="#181818" stroke-width=".5" d="M1534 780.5c0 10 61.752 10 61.752 10s61.75 0 61.75-10"/><text x="1544" y="807.495" font-family="sans-serif" font-size="14" textLength="103.503">notification_pg</text><path fill="#F1F1F1" stroke="#181818" stroke-width=".5" d="M1721.5 780.5c0-10 44.279-10 44.279-10s44.279 0 44.279 10v25.297c0 10-44.28 10-44.28 10s-44.278 0-44.278-10V780.5"/><path fill="transparent" stroke="#181818" stroke-width=".5" d="M1721.5 780.5c0 10 44.279 10 44.279 10s44.279 0 44.279-10"/><text x="1731.5" y="807.495" font-family="sans-serif" font-size="14" textLength="68.558">RabbitMQ</text><rect width="82.923" height="46.297" x="1165.5" y="332.5" fill="#F1F1F1" stroke="#181818" stroke-width=".5" rx="2.5" ry="2.5"/><path fill="#F1F1F1" stroke="#181818" stroke-width=".5" d="M1228.423 337.5h15v10h-15z"/><path fill="#F1F1F1" stroke="#181818" stroke-width=".5" d="M1226.423 339.5h4v2h-4zM1226.423 343.5h4v2h-4z"/><text x="1180.5" y="365.495" font-family="sans-serif" font-size="14" textLength="42.923">Billing</text><rect width="164.975" height="46.297" x="1292.5" y="491.5" fill="#F1F1F1" stroke="#181818" stroke-width=".5" rx="2.5" ry="2.5"/><path fill="#F1F1F1" stroke="#181818" stroke-width=".5" d="M1437.475 496.5h15v10h-15z"/><path fill="#F1F1F1" stroke="#181818" stroke-width=".5" d="M1435.475 498.5h4v2h-4zM1435.475 502.5h4v2h-4z"/><text x="1307.5" y="524.495" font-family="sans-serif" font-size="14" textLength="124.975">Subscribe Service</text><rect width="182.406" height="46.297" x="1284" y="332.5" fill="#F1F1F1" stroke="#181818" stroke-width=".5" rx="2.5" ry="2.5"/><path fill="#F1F1F1" stroke="#181818" stroke-width=".5" d="M1446.406 337.5h15v10h-15z"/><path fill="#F1F1F1" stroke="#181818" stroke-width=".5" d="M1444.406 339.5h4v2h-4zM1444.406 343.5h4v2h-4z"/><text x="1299" y="365.495" font-family="sans-serif" font-size="14" textLength="142.406">Subscribe Controller</text><path fill="#F1F1F1" stroke="#181818" stroke-width=".5" d="M1166.5 502c0-10 43.49-10 43.49-10s43.488 0 43.488 10v25.297c0 10-43.489 10-43.489 10s-43.489 0-43.489-10V502"/><path fill="transparent" stroke="#181818" stroke-width=".5" d="M1166.5 502c0 10 43.49 10 43.49 10s43.488 0 43.488-10"/><text x="1176.5" y="528.995" font-family="sans-serif" font-size="14" textLength="66.978">billing_pg</text><path fill="#F1F1F1" stroke="#181818" stroke-width=".5" d="M1319 641.5c0-10 55.982-10 55.982-10s55.982 0 55.982 10v25.297c0 10-55.982 10-55.982 10s-55.982 0-55.982-10V641.5"/><path fill="transparent" stroke="#181818" stroke-width=".5" d="M1319 641.5c0 10 55.982 10 55.982 10s55.982 0 55.982-10"/><text x="1329" y="668.495" font-family="sans-serif" font-size="14" textLength="91.964">subscribe_pg</text><ellipse cx="995.955" cy="14" fill="#F1F1F1" stroke="#181818" stroke-width=".5" rx="8" ry="8"/><path fill="transparent" stroke="#181818" stroke-width=".5" d="M995.955 22v27m-13-19h26m-13 19-13 15m13-15 13 15"/><text x="980" y="78.495" font-family="sans-serif" font-size="14" textLength="31.91">User</text><ellipse cx="833.183" cy="14" fill="#F1F1F1" stroke="#181818" stroke-width=".5" rx="8" ry="8"/><path fill="transparent" stroke="#181818" stroke-width=".5" d="M833.183 22v27m-13-19h26m-13 19-13 15m13-15 13 15"/><text x="802.5" y="78.495" font-family="sans-serif" font-size="14" textLength="61.366">Manager</text><rect width="80.53" height="46.297" x="955.5" y="173.5" fill="#F1F1F1" stroke="#181818" stroke-width=".5" rx="2.5" ry="2.5"/><path fill="#F1F1F1" stroke="#181818" stroke-width=".5" d="M1016.03 178.5h15v10h-15z"/><path fill="#F1F1F1" stroke="#181818" stroke-width=".5" d="M1014.03 180.5h4v2h-4zM1014.03 184.5h4v2h-4z"/><text x="970.5" y="206.495" font-family="sans-serif" font-size="14" textLength="40.53">Client</text><path fill="transparent" stroke="#181818" d="M815.29 81.59 698.205 326.835"/><path fill="#181818" stroke="#181818" d="m695.62 332.25 7.487-6.399-5.333 1.887-1.886-5.333-.268 9.845z"/><text x="779.262" y="193.567" font-family="sans-serif" font-size="13" textLength="32.17">Adds</text><text x="772" y="208.7" font-family="sans-serif" font-size="13" textLength="46.693">movies</text><path fill="transparent" stroke="#181818" d="M677.94 378.66c-9.58 30.09-24.78 77.813-34.26 107.583"/><path fill="#181818" stroke="#181818" d="m641.86 491.96 6.542-7.362-5.025 2.598-2.598-5.025 1.081 9.789z"/><text x="676.912" y="421.567" font-family="sans-serif" font-size="13" textLength="31.948">Edits</text><text x="668" y="436.7" font-family="sans-serif" font-size="13" textLength="49.772">content</text><path fill="transparent" stroke="#181818" d="M749.35 363.12c45.73 6.69 107.5 19.86 156.65 45.38 19 9.86 18.91 19.11 36 32 25.11 18.94 50.025 34.814 73.115 48.664"/><path fill="#181818" stroke="#181818" d="m1020.26 492.25-5.66-8.06 1.372 5.488-5.488 1.373 9.776 1.199z"/><text x="943" y="429.067" font-family="sans-serif" font-size="13" textLength="87.071">Authorization</text><path fill="transparent" stroke="#181818" d="M1020.47 532.32c-16.48 9.02-35.18 21.43-48.47 36.68-15.88 18.22-24.422 38.455-30.251 56.675"/><path fill="#181818" stroke="#181818" d="m939.92 631.39 6.552-7.353-5.028 2.591-2.591-5.029 1.067 9.791z"/><text x="983.61" y="582.067" font-family="sans-serif" font-size="13" textLength="53.853">Updates</text><text x="973" y="597.2" font-family="sans-serif" font-size="13" textLength="75.074">users, roles</text><path fill="transparent" stroke="#181818" d="M1057.16 537.59c.19 25.81.458 62.24.638 87.83"/><path fill="#181818" stroke="#181818" d="m1057.84 631.42 3.937-9.028-3.972 4.028-4.028-3.972 4.063 8.972z"/><text x="1059.085" y="582.067" font-family="sans-serif" font-size="13" textLength="41.419">Stores</text><text x="1058" y="597.2" font-family="sans-serif" font-size="13" textLength="43.589">tokens</text><path fill="transparent" stroke="#181818" d="M1000.29 219.72c11.2 58.02 40.092 207.699 51.292 265.689"/><path fill="#181818" stroke="#181818" d="m1052.72 491.3 2.221-9.595-3.169 4.686-4.686-3.169 5.634 8.078z"/><text x="1031" y="352.567" font-family="sans-serif" font-size="13" textLength="78.978">Registration</text><text x="1034.399" y="367.7" font-family="sans-serif" font-size="13" textLength="72.179">and tokens</text><path fill="transparent" stroke="#181818" d="M462.62 370.12c13.47 3.05 27.9 6.07 41.38 8.38 115.08 19.74 152.21-12.4 261 30 22.53 8.78 22.31 21.32 44 32 70.87 34.89 155.627 55.13 205.357 65.11"/><path fill="#181818" stroke="#181818" d="m1020.24 506.79-8.037-5.693 3.135 4.709-4.709 3.135 9.611-2.151z"/><text x="810" y="429.067" font-family="sans-serif" font-size="13" textLength="87.071">Authorization</text><path fill="transparent" stroke="#181818" d="M532.39 378.66a4103284 4103284 0 0 0-101.264 108.906"/><path fill="#181818" stroke="#181818" d="m427.04 491.96 9.058-3.867-5.653.205-.206-5.653-3.199 9.315z"/><text x="502" y="421.567" font-family="sans-serif" font-size="13" textLength="41.679">Writes</text><text x="507.221" y="436.7" font-family="sans-serif" font-size="13" textLength="31.237">films</text><path fill="transparent" stroke="#181818" d="M564.57 378.66c15.72 30.09 40.852 78.212 56.402 107.982"/><path fill="#181818" stroke="#181818" d="m623.75 491.96-.621-9.829-1.694 5.397-5.397-1.693 7.712 6.125z"/><text x="597" y="421.567" font-family="sans-serif" font-size="13" textLength="40.022">Reads</text><text x="601.393" y="436.7" font-family="sans-serif" font-size="13" textLength="31.237">films</text><path fill="transparent" stroke="#181818" d="M955.38 202.92c-102.41 14-368.9 52.67-451.38 86.58-25.5 10.48-46.471 24.667-64.861 39.027"/><path fill="#181818" stroke="#181818" d="m434.41 332.22 9.555-2.386-5.614-.691.691-5.615-4.632 8.692z"/><text x="656" y="262.567" font-family="sans-serif" font-size="13" textLength="50.73">Fetches</text><text x="656.479" y="277.7" font-family="sans-serif" font-size="13" textLength="49.772">content</text><path fill="transparent" stroke="#181818" d="M407.86 378.66c-.19 30.09-.492 77.53-.682 107.3"/><path fill="#181818" stroke="#181818" d="m407.14 491.96 4.057-8.974-4.025 3.974-3.975-4.025 3.943 9.025z"/><text x="408" y="421.567" font-family="sans-serif" font-size="13" textLength="40.022">Reads</text><text x="412.393" y="436.7" font-family="sans-serif" font-size="13" textLength="31.237">films</text><path fill="transparent" stroke="#181818" d="M386.01 378.63c-9.05 9.18-19.59 19.98-29.01 29.87-27.03 28.4-53.61 57.305-73.08 78.675"/><path fill="#181818" stroke="#181818" d="m279.88 491.61 9.018-3.959-5.651.263-.262-5.651-3.105 9.347z"/><text x="358" y="429.067" font-family="sans-serif" font-size="13" textLength="40.428">Cache</text><path fill="transparent" stroke="#181818" d="M996 81.83v85.28"/><path fill="#181818" stroke="#181818" d="m996 173.11 4-9-4 4-4-4 4 9z"/><text x="1017.487" y="124.567" font-family="sans-serif" font-size="13" textLength="31.059">Uses</text><text x="997" y="139.7" font-family="sans-serif" font-size="13" textLength="72.033">the service</text><path fill="transparent" stroke="#181818" d="M863.84 80.34c17.46 19.49 40.15 43.55 62.16 63.16 11.76 10.47 20.65 17.5 32.84 26.33"/><path fill="#181818" stroke="#181818" d="m963.7 173.35-4.942-8.519.893 5.586-5.586.893 9.635 2.04z"/><text x="927" y="132.067" font-family="sans-serif" font-size="13" textLength="60.88">Registers</text><path fill="transparent" stroke="#181818" d="M955.22 202.18c-40.6 4.61-104.68 11.74-160.22 17.32-269.77 27.1-351.59-23.71-606 70-27.38 10.09-50.333 24.64-70.143 39.18"/><path fill="#181818" stroke="#181818" d="m114.02 332.23 9.622-2.101-5.591-.857.858-5.592-4.889 8.55z"/><text x="314.726" y="262.567" font-family="sans-serif" font-size="13" textLength="51.238">Viewing</text><text x="312" y="277.7" font-family="sans-serif" font-size="13" textLength="56.691">progress</text><path fill="transparent" stroke="#181818" d="M85.15 378.66c-1.15 30.09-2.96 77.534-4.1 107.304"/><path fill="#181818" stroke="#181818" d="m80.82 491.96 4.342-8.84-4.151 3.844-3.844-4.151 3.653 9.147z"/><text x="97.841" y="421.567" font-family="sans-serif" font-size="13" textLength="39.514">Sends</text><text x="85" y="436.7" font-family="sans-serif" font-size="13" textLength="65.197">messages</text><path fill="transparent" stroke="#181818" d="M80 537.29v87.57"/><path fill="#181818" stroke="#181818" d="m80 630.86 4-9-4 4-4-4 4 9z"/><text x="91.537" y="582.067" font-family="sans-serif" font-size="13" textLength="44.123">Passes</text><text x="81" y="597.2" font-family="sans-serif" font-size="13" textLength="65.197">messages</text><path fill="transparent" stroke="#181818" d="M80 677.01v87.48"/><path fill="#181818" stroke="#181818" d="m80 770.49 4-9-4 4-4-4 4 9z"/><text x="95.387" y="721.567" font-family="sans-serif" font-size="13" textLength="38.683">Saves</text><text x="81" y="736.7" font-family="sans-serif" font-size="13" textLength="67.457">in batches</text><path fill="transparent" stroke="#181818" d="M1616.14 537.59c-4.47 25.66-10.79 61.83-15.26 87.46"/><path fill="#181818" stroke="#181818" d="m1599.85 630.96 5.487-8.179-4.628 3.253-3.253-4.627 2.394 9.553z"/><text x="1611" y="582.067" font-family="sans-serif" font-size="13" textLength="29.942">Gets</text><text x="1611.33" y="597.2" font-family="sans-serif" font-size="13" textLength="29.282">data</text><path fill="transparent" stroke="#181818" d="M1635.01 537.64c23.4 35.13 69.09 106.3 99.99 170.86 9.75 20.36 16.568 38.966 22.258 56.086"/><path fill="#181818" stroke="#181818" d="m1759.15 770.28.957-9.802-2.534 5.057-5.057-2.534 6.634 7.279z"/><text x="1737.392" y="651.067" font-family="sans-serif" font-size="13" textLength="61.337">Publishes</text><text x="1731" y="666.2" font-family="sans-serif" font-size="13" textLength="74.122">email tasks</text><path fill="transparent" stroke="#181818" d="M1876.66 677.2c-16.13 8.08-34.96 16.8-52.66 23.3-13.36 4.9-20.64-1.75-31 8-17.08 16.08-22.653 37.074-24.963 56.004"/><path fill="#181818" stroke="#181818" d="m1767.31 770.46 5.061-8.449-4.455 3.486-3.486-4.455 2.88 9.418z"/><text x="1797.202" y="721.567" font-family="sans-serif" font-size="13" textLength="67.717">Consumes</text><text x="1794" y="736.7" font-family="sans-serif" font-size="13" textLength="74.122">email tasks</text><path fill="transparent" stroke="#181818" d="M1910.84 677.1c-7.07 18.87-19.49 45.7-37.84 63.4-17.43 16.82-35.827 26.828-56.667 35.138"/><path fill="#181818" stroke="#181818" d="m1810.76 777.86 9.841.382-5.197-2.234 2.234-5.197-6.878 7.049z"/><text x="1897" y="721.567" font-family="sans-serif" font-size="13" textLength="61.337">Publishes</text><text x="1907.696" y="736.7" font-family="sans-serif" font-size="13" textLength="39.946">status</text><path fill="transparent" stroke="#181818" d="M1248.62 372.99c6.1 2.06 12.36 3.97 18.38 5.51 102.11 26.05 400.21-9.82 469 70 32.64 37.88 23.74 68.49 0 112.5-17.4 32.25-46.203 52.397-76.433 67.227"/><path fill="#181818" stroke="#181818" d="m1654.18 630.87 9.842-.373-5.353-1.829 1.829-5.353-6.318 7.555z"/><text x="1758" y="519.067" font-family="sans-serif" font-size="13" textLength="90.911">Payment data</text><path fill="transparent" stroke="#181818" d="M1093.67 536.33c16.49 8.66 36.46 18.18 55.33 24.67 17.63 6.06 245.156 51.787 367.466 76.177"/><path fill="#181818" stroke="#181818" d="m1522.35 638.35-8.044-5.683 3.141 4.705-4.705 3.141 9.608-2.163z"/><text x="1330" y="589.567" font-family="sans-serif" font-size="13" textLength="63.883">Auth data</text><path fill="transparent" stroke="#181818" d="M1609.15 677.29c11.92 18.74 30.95 45.26 52.85 63.21 17.61 14.43 34.452 23.735 53.892 32.325"/><path fill="#181818" stroke="#181818" d="m1721.38 775.25-6.616-7.296 2.043 5.275-5.276 2.042 9.849-.021z"/><text x="1663" y="721.567" font-family="sans-serif" font-size="13" textLength="67.717">Consumes</text><text x="1676.886" y="736.7" font-family="sans-serif" font-size="13" textLength="39.946">status</text><g stroke="#181818"><path fill="transparent" d="M1596 677.01v87.48"/><path fill="#181818" d="m1596 770.49 4-9-4 4-4-4 4 9z"/></g><path fill="transparent" stroke="#181818" d="M1036.53 198.77c106.6 4.28 390.52 22.04 447.47 90.73 43.84 52.88 8.43 96.2-33 151-14.23 18.83-28.908 33.265-44.438 46.875"/><path fill="#181818" stroke="#181818" d="m1402.05 491.33 9.405-2.924-5.645-.371.372-5.645-4.132 8.94z"/><text x="1505" y="360.067" font-family="sans-serif" font-size="13" textLength="70.643">Subscribes</text><path fill="transparent" stroke="#181818" d="M1375 378.66v106.79"/><path fill="#181818" stroke="#181818" d="m1375 491.45 4-9-4 4-4-4 4 9z"/><text x="1376" y="421.567" font-family="sans-serif" font-size="13" textLength="66.511">Schedules</text><text x="1381.018" y="436.7" font-family="sans-serif" font-size="13" textLength="56.475">requests</text><g stroke="#181818"><path fill="transparent" d="M1375 537.59v87.83"/><path fill="#181818" d="m1375 631.42 4-9-4 4-4-4 4 9z"/></g><path fill="transparent" stroke="#181818" d="M1034.04 219.56c29.34 17.63 70.45 43.65 103.96 69.94 16.83 13.21 30.104 25.53 43.284 38.63"/><path fill="#181818" stroke="#181818" d="m1185.54 332.36-3.564-9.182.018 5.657-5.657.018 9.203 3.507z"/><text x="1128" y="270.067" font-family="sans-serif" font-size="13" textLength="101.823">Payment/status</text><path fill="transparent" stroke="#181818" d="M1165.11 372.5c-18.3 8.56-39 20.56-54.11 36-23.37 23.88-36.862 54.266-45.042 77.296"/><path fill="#181818" stroke="#181818" d="m1063.95 491.45 6.782-7.142-5.109 2.43-2.43-5.108.757 9.82z"/><text x="1112" y="429.067" font-family="sans-serif" font-size="13" textLength="87.071">Authorization</text><g stroke="#181818"><path fill="transparent" d="M1207.42 378.66c.58 30.09 1.485 77.531 2.055 107.301"/><path fill="#181818" d="m1209.59 491.96 3.827-9.075-3.923 4.076-4.076-3.923 4.172 8.922z"/></g><path fill="transparent" stroke="#181818" d="M1226.07 378.71c15.32 17.41 37.71 41.94 58.93 61.79 19.4 18.14 37.98 33.301 56.02 47.301"/><path fill="#181818" stroke="#181818" d="m1345.76 491.48-4.658-8.678.708 5.612-5.613.708 9.563 2.358z"/><text x="1286" y="421.567" font-family="sans-serif" font-size="13" textLength="80.774">Subscription</text><text x="1307.569" y="436.7" font-family="sans-serif" font-size="13" textLength="37.635">CRUD</text></svg>